<svg width="28" height="23" viewBox="0 0 28 23" fill="none" xmlns="http://www.w3.org/2000/svg">
<path d="M7.50153 7.9678L6.9592 7.40019L6.41693 7.96786L3.71451 10.7969L3.21963 11.3149L3.71451 11.833L11.1493 19.616L11.6916 20.1837L12.2339 19.616L25.5425 5.68397L26.0373 5.16601L25.5426 4.64795L22.8412 1.81895L22.2989 1.25108L21.7565 1.81881L11.6916 12.3532L7.50153 7.9678Z" fill="#4D4D4D" stroke="white" stroke-width="1.5"/>
<path d="M21 20C21 20.542 20.542 21 20 21H3C2.458 21 2 20.542 2 20V3C2 2.458 2.458 2 3 2H19.908L21.493 0.415C21.041 0.146542 20.5257 0.00329969 20 0H3C1.35 0 0 1.35 0 3V20C0 21.65 1.35 23 3 23H20C21.65 23 23 21.65 23 20V10.171L21 12.171V20Z" fill="#4D4D4D"/>
</svg>
