<svg width="180" height="180" viewBox="0 0 180 180" fill="none" xmlns="http://www.w3.org/2000/svg">
<rect width="180" height="180" fill="#EEEEEE"/>
<path d="M84.3277 30.0452C91.0217 43.847 70.4183 53.2212 60.966 42.8684C57.0273 38.4579 58.8388 29.9346 68.3926 25.3028C73.1737 22.9316 79.8677 20.776 84.3277 30.0452Z" fill="black"/>
<path d="M126.467 23.9725C133.75 38.9968 111.31 49.2049 101.023 37.9331C96.7354 33.1255 98.7047 23.8563 109.118 18.8104C114.319 16.2264 121.604 13.8864 126.467 23.9725Z" fill="black"/>
<path fill-rule="evenodd" clip-rule="evenodd" d="M83.3728 152.406C98.6148 154.162 114.479 149.377 120.607 139.495C125.788 131.204 121.548 128.334 115.578 135.028C103.013 149.539 89.9739 143.001 84.4772 128.334L85.8916 127.857C112.437 117.176 129.088 88.1652 118.565 71.7455C104.109 49.1084 58.8701 69.3516 53.2128 101.076C48.0288 130.407 61.5381 150.015 83.3728 152.406ZM99.7133 73.3424C104.269 80.6744 98.7723 106.658 82.2765 118.455C81.806 114.785 81.806 110.802 82.1187 106.658C85.4179 77.6451 94.8448 65.6927 99.7133 73.3424Z" fill="black"/>
</svg>
