<svg width="192" height="192" viewBox="0 0 192 192" fill="none" xmlns="http://www.w3.org/2000/svg">
<rect width="192" height="192" fill="#EEEEEE"/>
<path d="M89.9495 32.0482C97.0898 46.7701 75.1128 56.7692 65.0303 45.7263C60.829 41.0217 62.7614 31.9302 72.952 26.9896C78.0519 24.4604 85.1922 22.161 89.9495 32.0482Z" fill="black"/>
<path d="M134.898 25.5707C142.667 41.5966 118.73 52.4852 107.758 40.462C103.184 35.3339 105.285 25.4467 116.392 20.0644C121.94 17.3082 129.711 14.8122 134.898 25.5707Z" fill="black"/>
<path fill-rule="evenodd" clip-rule="evenodd" d="M88.931 162.567C105.189 164.439 122.111 159.335 128.648 148.795C134.174 139.951 129.651 136.889 123.283 144.03C109.88 159.508 95.9722 152.534 90.109 136.889L91.6176 136.381C119.933 124.987 137.693 94.0429 126.469 76.5285C111.049 52.3823 62.7947 73.975 56.7603 107.815C51.2307 139.101 65.6406 160.016 88.931 162.567ZM106.361 78.2319C111.22 86.0527 105.357 113.769 87.7616 126.352C87.2597 122.437 87.2597 118.189 87.5933 113.769C91.1124 82.8215 101.168 70.0722 106.361 78.2319Z" fill="black"/>
</svg>
